# xmcd
# 
# Track frame offsets:
#     150
#     11902
#     26227
#     37967
#     54012
#     66110
#     78700
#     92500
#     109685
#     124802
#     137887
#     155190
#     169707
#     188647
#     206370
#     233467
#     248215
#     269337
#     293105
#     309612
#     334020
# 
# Disc length: 4736
# 
# Revision: 1
# Processed by: cddbd v1.5.2PL0 Copyright (c) Steve Scherf et al.
# Submitted via: BonkEnc v1.0.8
# 
DISCID=23127e15
DTITLE=Various Artist - 人間万葉歌　阿久悠 〜 DISC 5「人間 万葉歌 1965〜2005」
DYEAR=2005
DGENRE=JPop
TTITLE0=田辺昭知とザ・スパイダース - モンキー・ダンス
TTITLE1=ザ・モップス - 朝まで待てない
TTITLE2=ズ・ニー・ヴー - 白いサンゴ礁
TTITLE3=南高節とかぐや姫 - 酔いどれかぐや姫
TTITLE4=かまやつひろし - 幼きものの手をひいて
TTITLE5=山本リンダ - きりきり舞い
TTITLE6=森田公一とトップギャラン - 長距離バス
TTITLE7=ピンクレディー - マンデー・モナリザ・クラブ
TTITLE8=ザ・タイガース - 十年ロマンス
TTITLE9=クリスタルキング - 瀬戸内行進曲(In The Mood)
TTITLE10=夏川りみ - 「あゝ甲子園」君よ八月に熱くなれ
TTITLE11=小泉今日子 - 学園天国
TTITLE12=谷村新司 - 三都物語
TTITLE13=小林旭 - あれから
TTITLE14=吉田拓郎＆加藤和彦 - 純情
TTITLE15=シーナ＆ザ・ロケッツ - ロックの好きなベイビー抱いて
TTITLE16=桂銀淑 - 昭和最後の秋のこと
TTITLE17=石川さゆり - 転がる石
TTITLE18=五木ひろし - 傘ん中
TTITLE19=都はるみ - ムカシ
TTITLE20=渚ようこ - ふるえて眠る子守唄
EXTD=YEAR: 2005
EXTT0=
EXTT1=
EXTT2=
EXTT3=
EXTT4=
EXTT5=
EXTT6=
EXTT7=
EXTT8=
EXTT9=
EXTT10=
EXTT11=
EXTT12=
EXTT13=
EXTT14=
EXTT15=
EXTT16=
EXTT17=
EXTT18=
EXTT19=
EXTT20=
PLAYORDER=
